<?xml version="1.0" encoding="UTF-8"?>
<svg id="Layer_2" data-name="Layer 2" xmlns="http://www.w3.org/2000/svg" viewBox="0 0 194.15 219.98">
  <defs>
    <style>
      .cls-1 {
        fill: none;
        stroke: #000;
        stroke-miterlimit: 10;
        stroke-width: 10px;
      }
    </style>
  </defs>
  <path class="cls-1" d="M85.66,55.44c.36,2.57.84,8.49-2,15.11-3.27,7.62-8.95,11.55-11.11,12.89"/>
  <path class="cls-1" d="M64.07,24.6c-1.78,8.31-4.74,27.63,3.26,49.78,6.12,16.96,15.97,28.12,21.87,33.88"/>
  <path class="cls-1" d="M13.85,114.23c4.84-3.37,19.12-12.37,39.26-11.94,8.76.18,16.2,2.36,18.38,3.04.22.07.4.13.4.13s3.3,1.07,9.93,4.9h0c2.32-2.93,4.64-5.85,6.96-8.78"/>
  <path class="cls-1" d="M144.17,201.16c-4.49-.66-20.05-3.49-32.55-17.24-10.97-12.06-13.21-25.5-13.78-30.31"/>
  <path class="cls-1" d="M112.96,216.46c-5.84-5.87-15.79-17.5-21.33-35.02-2.07-6.55-5.93-21.52-2.95-39.2,6.09-36.24,34.06-43.28,41.76-78.22,3.42-15.51,1.24-29.24-1.03-38.22"/>
  <line class="cls-1" x1="74.73" y1="160.9" x2="13.85" y2="160.9"/>
  <path class="cls-1" d="M181.85,163.57c-15.01.24-27.75-.05-37.48-.44-24.28-.98-30.65-2.57-34.47-7.56-5.04-6.58-3.39-16.12-1.83-21.78"/>
  <path class="cls-1" d="M121.01,105.34c5.21-1.55,13.18-3.31,23.04-3.02.12,0,2.74.08,5.35.36,13.03,1.36,25.35,7.49,32.44,11.56"/>
  <path class="cls-1" d="M169.85,84.9c-1.67-.34-10.21-1.88-18.42,3.56-7.26,4.81-9.5,11.94-10.03,13.83"/>
  <path class="cls-1" d="M159.62,37.79c-1.12,4.49-4.12,13.94-12.44,22.67-7.24,7.59-15.11,11.08-19.39,12.63"/>
  <path class="cls-1" d="M109.89,32.46c.94,4.23,2.95,10.82,7.51,17.78,4.46,6.81,9.57,11.22,13.03,13.78"/>
  <path class="cls-1" d="M79.64,184.14c-2.1,2.64-5.88,6.72-11.78,10-6.6,3.68-12.74,4.62-16.22,4.89"/>
  <path class="cls-1" d="M89.2,207.03c-2.67,3.14-5.33,6.28-8,9.43"/>
  <path class="cls-1" d="M40.1,33.88c.15,2.64,1.04,12.59,9.11,20.67,5.58,5.58,11.85,7.53,14.8,8.24"/>
  <path class="cls-1" d="M23.22,81.44c3.33.57,10.18,2.21,16.89,7.56,6,4.78,9.07,10.28,10.49,13.3"/>
  <path d="M55.13,112.84c2.38,1.81,1.6,8.27-1.67,11.72-3.88,4.09-12,4.72-12,4.72h0c-.02.15-.26-7.52,3-12.06,2.7-3.75,8.35-6.15,10.67-4.39Z"/>
  <path d="M21.26,96.37c-.2,2.98-6.02,5.9-10.7,5.07C5,100.46,0,94.03,0,94.03H0c-.14.06,6.13-4.36,11.71-4.14,4.61.19,9.73,3.58,9.54,6.48Z"/>
  <path d="M54.37,74.78c-.83,2.87-7.14,4.47-11.54,2.66-5.21-2.15-8.72-9.5-8.72-9.5h0c-.15.03,6.92-2.95,12.33-1.53,4.46,1.17,8.74,5.58,7.93,8.38Z"/>
  <path d="M32.84,55.09c-1.12,2.77-7.57,3.71-11.75,1.45-4.96-2.68-7.69-10.35-7.69-10.35h0c-.15.02,7.19-2.22,12.42-.25,4.32,1.63,8.11,6.46,7.02,9.15Z"/>
  <path d="M89.95,93.13c-2.55-1.55-2.45-8.06.45-11.83,3.43-4.47,11.45-5.94,11.45-5.94h0c0-.15,1.04,7.45-1.74,12.3-2.29,4-7.67,6.98-10.16,5.47Z"/>
  <path d="M140.57,115.86c1.58-2.53,8.09-2.34,11.82.61,4.42,3.5,5.78,11.53,5.78,11.53h0c.15.01-7.47.94-12.28-1.91-3.97-2.35-6.87-7.76-5.33-10.23Z"/>
  <path d="M173.17,95.55c-.7-2.9,3.98-7.42,8.7-8.03,5.59-.72,12.28,3.92,12.28,3.92h0c.11-.1-4.55,5.99-9.94,7.45-4.46,1.2-10.35-.51-11.04-3.34Z"/>
  <path d="M133.35,88.36c-2.15-2.07-.61-8.4,3.04-11.44,4.34-3.6,12.48-3.27,12.48-3.27h0c.04-.15-.63,7.5-4.41,11.61-3.12,3.4-9.02,5.11-11.11,3.09Z"/>
  <path d="M163.31,64.43c-.53-2.94,4.42-7.17,9.17-7.49,5.62-.38,12.03,4.66,12.03,4.66h0c.12-.09-4.9,5.71-10.37,6.83-4.52.93-10.31-1.14-10.82-4Z"/>
  <path d="M145.87,37.78c-2.98-.18-5.92-6-5.11-10.68.96-5.55,7.37-10.58,7.37-10.58h0c-.06-.14,4.39,6.11,4.18,11.7-.17,4.61-3.54,9.74-6.45,9.56Z"/>
  <path d="M124.49,21.26c-2.95.45-7.05-4.61-7.25-9.36C117.01,6.27,122.22,0,122.22,0h0c-.09-.12,5.58,5.05,6.56,10.55.81,4.54-1.41,10.27-4.28,10.71Z"/>
  <path d="M106.92,17.06c-2.14,2.09-8.42.36-11.35-3.38-3.47-4.44-2.89-12.57-2.89-12.57h0c-.14-.05,7.48.85,11.48,4.75,3.31,3.22,4.84,9.17,2.76,11.2Z"/>
  <path d="M113.89,71.36c-2.09,2.13-8.41.54-11.41-3.15-3.56-4.37-3.15-12.5-3.15-12.5h0c-.15-.04,7.49.7,11.57,4.51,3.37,3.15,5.03,9.06,2.99,11.14Z"/>
  <path d="M95.91,31.65c-2.02,2.2-8.39.82-11.51-2.76-3.71-4.25-3.57-12.39-3.57-12.39h0c-.15-.04,7.51.44,11.72,4.12,3.48,3.04,5.33,8.89,3.37,11.03Z"/>
  <path d="M71.18,53.84c-2.25-1.96-1.04-8.36,2.46-11.58,4.15-3.82,12.29-3.9,12.29-3.9h0c.03-.15-.25,7.52-3.81,11.82-2.94,3.55-8.75,5.57-10.94,3.66Z"/>
  <path d="M64.96,15.64c-2.12-2.1-.51-8.41,3.18-11.4,4.38-3.55,12.51-3.12,12.51-3.12h0c.04-.15-.72,7.49-4.55,11.56-3.16,3.36-9.08,5-11.15,2.96Z"/>
  <path d="M50.09,30.41c-2.73,1.22-8.02-2.57-9.48-7.1-1.72-5.37,1.63-12.79,1.63-12.79h0c-.12-.09,6.72,3.38,9.13,8.43,1.99,4.16,1.38,10.28-1.28,11.46Z"/>
</svg>
